<svg width="487" height="93" viewBox="0 0 487 93" fill="none" xmlns="http://www.w3.org/2000/svg">
<g clip-path="url(#clip0_15_2)">
<g filter="url(#filter0_d_15_2)">
<path d="M128.323 48.2477C127.032 47.4702 127.032 45.599 128.323 44.8215L188.968 8.28357C190.301 7.48046 192 8.44045 192 9.99667L192 83.0725C192 84.6287 190.301 85.5887 188.968 84.7856L128.323 48.2477Z" fill="url(#paint0_linear_15_2)"/>
</g>
<path d="M173.677 44.8207C174.968 45.5982 174.968 47.4694 173.677 48.2469L113.032 84.7848C111.699 85.5879 110 84.6279 110 83.0717L110 9.99584C110 8.43962 111.699 7.47964 113.032 8.28275L173.677 44.8207Z" fill="url(#paint1_linear_15_2)"/>
<path d="M367.613 55.9229C367.613 58.3707 368.154 60.4586 369.233 62.1865C370.313 63.9145 371.754 65.2466 373.554 66.1826C375.426 67.0466 377.478 67.4785 379.71 67.4785C382.014 67.4785 384.03 67.0466 385.758 66.1826C387.558 65.2466 388.962 63.9509 389.97 62.2949C390.978 60.567 391.481 58.4791 391.481 56.0312V8.29492H413.189V54.0869C413.189 60.4228 411.785 66.0386 408.978 70.9346C406.242 75.7586 402.353 79.5748 397.313 82.3828C392.346 85.1187 386.478 86.4873 379.71 86.4873C372.942 86.4873 367.038 85.1187 361.998 82.3828C356.958 79.5748 353.034 75.7231 350.226 70.8271C347.418 65.9311 346.014 60.3145 346.014 53.9785V8.29492H367.613V55.9229Z" fill="black"/>
<path d="M310.124 6.99805C316.1 6.9981 321.572 7.93371 326.54 9.80566C331.508 11.6777 335.828 14.2701 339.5 17.582L325.136 32.0537C323.408 30.1818 321.284 28.706 318.764 27.626C316.316 26.546 313.436 26.0059 310.124 26.0059C307.244 26.0059 304.58 26.4742 302.132 27.4102C299.756 28.3461 297.704 29.7138 295.976 31.5137C294.248 33.3136 292.879 35.5097 291.871 38.1016C290.935 40.6215 290.468 43.4659 290.468 46.6338C290.468 49.8737 290.935 52.7899 291.871 55.3818C292.879 57.9018 294.248 60.0623 295.976 61.8623C297.704 63.6622 299.756 65.0662 302.132 66.0742C304.58 67.0101 307.244 67.4785 310.124 67.4785C313.364 67.4785 316.244 66.9738 318.764 65.9658C321.356 64.9578 323.588 63.482 325.46 61.5381L339.932 76.0098C336.116 79.3218 331.831 81.9141 327.079 83.7861C322.327 85.586 316.748 86.4863 310.34 86.4863C304.436 86.4863 298.927 85.5143 293.815 83.5703C288.775 81.5543 284.347 78.7464 280.531 75.1465C276.715 71.5465 273.727 67.3338 271.567 62.5098C269.479 57.6138 268.436 52.3217 268.436 46.6338C268.436 40.8739 269.479 35.5817 271.567 30.7578C273.727 25.9339 276.68 21.7584 280.424 18.2305C284.24 14.7025 288.668 11.9665 293.708 10.0225C298.748 8.00653 304.22 6.99805 310.124 6.99805Z" fill="black"/>
<path d="M67.7158 26.6553H44.6035V85.1914H23.0039V26.6553H0V8.29492H67.7158V26.6553Z" fill="black"/>
<path d="M97.4355 85.1914H75.8359V8.29492H97.4355V85.1914Z" fill="black"/>
<path d="M262.718 26.2227H226.213V37.2393H259.369V54.7354H226.213V67.2627H263.365V85.1914H204.613V8.29492H262.718V26.2227Z" fill="black"/>
<path fill-rule="evenodd" clip-rule="evenodd" d="M460.155 8.29492C465.123 8.29492 469.588 9.30334 473.548 11.3193C477.58 13.2633 480.748 16.1068 483.052 19.8506C485.428 23.5226 486.615 27.9872 486.615 33.2432C486.615 38.427 485.428 42.8909 483.052 46.6348C480.748 50.3788 477.58 53.2594 473.548 55.2754C469.588 57.2194 465.123 58.1914 460.155 58.1914H446.115V85.1914H424.516V8.29492H460.155ZM446.115 42.6387H455.943C457.599 42.6387 459.112 42.315 460.479 41.667C461.919 40.947 463.072 39.9031 463.936 38.5352C464.8 37.0952 465.231 35.3311 465.231 33.2432C465.231 31.1552 464.8 29.4266 463.936 28.0586C463.072 26.6187 461.919 25.5747 460.479 24.9268C459.112 24.2068 457.599 23.8467 455.943 23.8467H446.115V42.6387Z" fill="black"/>
</g>
<defs>
<filter id="filter0_d_15_2" x="123.355" y="5.99356" width="68.6449" height="81.0821" filterUnits="userSpaceOnUse" color-interpolation-filters="sRGB">
<feFlood flood-opacity="0" result="BackgroundImageFix"/>
<feColorMatrix in="SourceAlpha" type="matrix" values="0 0 0 0 0 0 0 0 0 0 0 0 0 0 0 0 0 0 127 0" result="hardAlpha"/>
<feOffset dx="-2"/>
<feGaussianBlur stdDeviation="1"/>
<feComposite in2="hardAlpha" operator="out"/>
<feColorMatrix type="matrix" values="0 0 0 0 0 0 0 0 0 0 0 0 0 0 0 0 0 0 0.12 0"/>
<feBlend mode="normal" in2="BackgroundImageFix" result="effect1_dropShadow_15_2"/>
<feBlend mode="normal" in="SourceGraphic" in2="effect1_dropShadow_15_2" result="shape"/>
</filter>
<linearGradient id="paint0_linear_15_2" x1="151.908" y1="69.9121" x2="214.488" y2="8.0151" gradientUnits="userSpaceOnUse">
<stop stop-color="#9C27B0"/>
<stop offset="1" stop-color="#0004FF"/>
</linearGradient>
<linearGradient id="paint1_linear_15_2" x1="150.092" y1="23.1563" x2="87.5116" y2="85.0533" gradientUnits="userSpaceOnUse">
<stop stop-color="#9C27B0"/>
<stop offset="1" stop-color="#F429A3"/>
</linearGradient>
<clipPath id="clip0_15_2">
<rect width="486.616" height="92.5566" fill="white" transform="translate(0 0.255859)"/>
</clipPath>
</defs>
</svg>
